<mxfile host="65bd71144e" modified="2021-02-23T10:50:20.771Z" agent="5.0 (Macintosh; Intel Mac OS X 10_15_7) AppleWebKit/537.36 (KHTML, like Gecko) Code/1.53.2 Chrome/87.0.4280.141 Electron/11.2.1 Safari/537.36" version="14.2.4" etag="_1Q8_wRND7vLyZyPZCm1" type="embed">
    <diagram id="upSoEdnShCrKfMoyxaS-" name="Page-1">
        <mxGraphModel dx="921" dy="805" grid="1" gridSize="10" guides="1" tooltips="1" connect="1" arrows="1" fold="1" page="1" pageScale="1" pageWidth="413" pageHeight="583" math="0" shadow="0">
            <root>
                <mxCell id="0"/>
                <mxCell id="1" parent="0"/>
                <mxCell id="2" value="&lt;b&gt;Google &lt;/b&gt;Cloud Platform" style="fillColor=#F6F6F6;strokeColor=none;shadow=0;gradientColor=none;fontSize=14;align=left;spacing=10;fontColor=#717171;9E9E9E;verticalAlign=top;spacingTop=-4;fontStyle=0;spacingLeft=40;html=1;" vertex="1" parent="1">
                    <mxGeometry x="150" y="57" width="640" height="470" as="geometry"/>
                </mxCell>
                <mxCell id="3" value="" style="shape=mxgraph.gcp2.google_cloud_platform;fillColor=#F6F6F6;strokeColor=none;shadow=0;gradientColor=none;" vertex="1" parent="2">
                    <mxGeometry width="23" height="20" relative="1" as="geometry">
                        <mxPoint x="20" y="10" as="offset"/>
                    </mxGeometry>
                </mxCell>
                <mxCell id="4" value="my-network" style="points=[[0,0,0],[0.25,0,0],[0.5,0,0],[0.75,0,0],[1,0,0],[1,0.25,0],[1,0.5,0],[1,0.75,0],[1,1,0],[0.75,1,0],[0.5,1,0],[0.25,1,0],[0,1,0],[0,0.75,0],[0,0.5,0],[0,0.25,0]];rounded=1;absoluteArcSize=1;arcSize=2;html=1;strokeColor=none;gradientColor=none;shadow=0;dashed=0;fontSize=12;fontColor=#9E9E9E;align=left;verticalAlign=top;spacing=10;spacingTop=-4;fillColor=#E1F5FE;" vertex="1" parent="2">
                    <mxGeometry x="170" y="35" width="450" height="400" as="geometry"/>
                </mxCell>
                <mxCell id="5" value="my-subnetwork" style="points=[[0,0,0],[0.25,0,0],[0.5,0,0],[0.75,0,0],[1,0,0],[1,0.25,0],[1,0.5,0],[1,0.75,0],[1,1,0],[0.75,1,0],[0.5,1,0],[0.25,1,0],[0,1,0],[0,0.75,0],[0,0.5,0],[0,0.25,0]];rounded=1;absoluteArcSize=1;arcSize=2;html=1;strokeColor=none;gradientColor=none;shadow=0;dashed=0;fontSize=12;fontColor=#9E9E9E;align=left;verticalAlign=top;spacing=10;spacingTop=-4;fillColor=#FFF8E1;" vertex="1" parent="2">
                    <mxGeometry x="200" y="70" width="390" height="330" as="geometry"/>
                </mxCell>
                <mxCell id="6" value="&lt;font color=&quot;#666666&quot;&gt;kubectl コマンドで操作する&lt;/font&gt;" style="edgeStyle=orthogonalEdgeStyle;rounded=0;orthogonalLoop=1;jettySize=auto;html=1;entryX=0.5;entryY=0;entryDx=0;entryDy=0;entryPerimeter=0;strokeColor=#666666;" edge="1" parent="2" source="7" target="8">
                    <mxGeometry relative="1" as="geometry"/>
                </mxCell>
                <mxCell id="7" value="VMインスタンス&lt;br&gt;bastion&lt;br&gt;(踏み台サーバー)" style="points=[[0,0,0],[0.25,0,0],[0.5,0,0],[0.75,0,0],[1,0,0],[1,0.25,0],[1,0.5,0],[1,0.75,0],[1,1,0],[0.75,1,0],[0.5,1,0],[0.25,1,0],[0,1,0],[0,0.75,0],[0,0.5,0],[0,0.25,0]];rounded=1;absoluteArcSize=1;arcSize=2;html=1;gradientColor=none;shadow=0;dashed=0;fontSize=12;fontColor=#9E9E9E;align=center;verticalAlign=middle;spacing=10;spacingTop=-4;strokeColor=#CCCCCC;" vertex="1" parent="2">
                    <mxGeometry x="335" y="125" width="120" height="81.62" as="geometry"/>
                </mxCell>
                <mxCell id="8" value="GKEクラスタ&lt;br&gt;my-cluster" style="points=[[0,0,0],[0.25,0,0],[0.5,0,0],[0.75,0,0],[1,0,0],[1,0.25,0],[1,0.5,0],[1,0.75,0],[1,1,0],[0.75,1,0],[0.5,1,0],[0.25,1,0],[0,1,0],[0,0.75,0],[0,0.5,0],[0,0.25,0]];rounded=1;absoluteArcSize=1;arcSize=2;html=1;gradientColor=none;shadow=0;dashed=0;fontSize=12;fontColor=#9E9E9E;align=center;verticalAlign=middle;spacing=10;spacingTop=-4;strokeColor=#CCCCCC;" vertex="1" parent="2">
                    <mxGeometry x="230" y="265" width="330" height="113.26" as="geometry"/>
                </mxCell>
                <mxCell id="9" value="Cloud IAP&#10;による認証" style="strokeColor=#dddddd;shadow=1;strokeWidth=1;rounded=1;absoluteArcSize=1;arcSize=2;fontColor=#666666;" vertex="1" parent="2">
                    <mxGeometry x="30" y="125" width="110" height="44" as="geometry"/>
                </mxCell>
                <mxCell id="10" style="edgeStyle=orthogonalEdgeStyle;rounded=0;orthogonalLoop=1;jettySize=auto;html=1;entryX=0;entryY=0.5;entryDx=0;entryDy=0;entryPerimeter=0;strokeColor=#666666;" edge="1" parent="1" source="11" target="7">
                    <mxGeometry relative="1" as="geometry"/>
                </mxCell>
                <mxCell id="12" value="SSH接続する" style="edgeLabel;html=1;align=center;verticalAlign=middle;resizable=0;points=[];fontColor=#666666;" vertex="1" connectable="0" parent="10">
                    <mxGeometry x="0.5028" y="1" relative="1" as="geometry">
                        <mxPoint as="offset"/>
                    </mxGeometry>
                </mxCell>
                <mxCell id="11" value="User" style="outlineConnect=0;fontColor=#232F3E;gradientColor=none;strokeColor=#232F3E;fillColor=#ffffff;dashed=0;verticalLabelPosition=bottom;verticalAlign=top;align=center;html=1;fontSize=12;fontStyle=0;aspect=fixed;shape=mxgraph.aws4.resourceIcon;resIcon=mxgraph.aws4.user;" vertex="1" parent="1">
                    <mxGeometry x="30" y="192" width="60" height="60" as="geometry"/>
                </mxCell>
            </root>
        </mxGraphModel>
    </diagram>
</mxfile>